<svg width="88" height="25" fill="none">
    <path fill="#fff"
        d="M1.401 20V5.586h2.172l4.985 10.21 4.985-10.21h2.172V20h-2.252v-9.239L9.039 20h-.961l-4.415-9.239V20zM18.563 7.548V5.336h2.412v2.212h-2.413Zm0 12.452V9.19h2.412V20h-2.413ZM84.041 7.548V5.336h2.412v2.212zm0 12.452V9.19h2.412V20zM31.4 20v-5.205q0-.51-.07-1.131a3.9 3.9 0 0 0-.33-1.191 2.26 2.26 0 0 0-.76-.951q-.501-.37-1.362-.37-.46 0-.91.15-.451.15-.822.52-.36.36-.58 1.001-.22.63-.22 1.622l-1.432-.61q0-1.383.53-2.503a4.26 4.26 0 0 1 1.582-1.782q1.04-.67 2.563-.67 1.2 0 1.982.4.78.4 1.24 1.02.462.622.681 1.322t.28 1.331q.07.621.07 1.011V20zm-7.497 0V9.19h2.152v3.353h.29V20zm16.866.3q-1.492 0-2.603-.75-1.11-.75-1.721-2.042-.61-1.291-.611-2.913 0-1.642.61-2.923.621-1.29 1.752-2.032 1.131-.75 2.663-.75 1.54 0 2.582.75 1.05.74 1.592 2.032.54 1.29.54 2.923 0 1.611-.54 2.913-.54 1.29-1.612 2.042-1.071.75-2.652.75m.37-2.162q.971 0 1.561-.44.6-.45.871-1.251.28-.8.28-1.852 0-1.061-.28-1.852-.27-.8-.85-1.241-.581-.45-1.502-.45-.97 0-1.602.48-.63.47-.93 1.281a5 5 0 0 0-.3 1.782q0 .99.29 1.802.3.8.91 1.27.612.471 1.552.471M43.851 20v-7.587h-.3V5.586h2.433V20zm35.243-2.755c-.044.138-.075.257-.12.37-.177.454-.444.836-.865 1.093-.225.14-.49.199-.75.165l-.05-.005c-.338-.04-.518.092-.568.43a1.85 1.85 0 0 1-.67 1.159 1.8 1.8 0 0 1-2.458-.193 1.86 1.86 0 0 1-.487-1.25c-.003-.724 0-1.45 0-2.174 0-.192.049-.23.232-.182q.015.004.03.011c.478.224.92.497 1.238.94q.081.12.137.256c.11.248.338.351.56.255.236-.1.326-.339.226-.596a2.2 2.2 0 0 0-.55-.807c-.46-.441-.989-.75-1.626-.835-.073-.01-.147-.015-.235-.024-.004-.05-.012-.095-.012-.142v-1.331a.35.35 0 0 1 .098-.248 2.05 2.05 0 0 1 1.272-.676 3 3 0 0 1 .253-.024q.077-.008.143.034a.22.22 0 0 1 .089.119c.118.29.295.553.519.77q.05.053.109.095a.42.42 0 0 0 .556-.062.43.43 0 0 0 .008-.569c-.048-.062-.117-.112-.164-.176-.416-.562-.554-1.182-.36-1.866.07-.251-.035-.482-.267-.563-.22-.077-.44.039-.534.281-.117.298-.155.582-.138 1.054a3.1 3.1 0 0 0-1.551.503c-.055-.135-.025-.259-.03-.378-.006-.12 0-.238 0-.357V10.11a1 1 0 0 1 .105-.044c.782-.223 1.365-.71 1.772-1.415.09-.156.14-.338.203-.51a.44.44 0 0 0-.138-.48.4.4 0 0 0-.155-.08c-.222-.064-.44.063-.516.312-.183.592-.587.978-1.121 1.237a1 1 0 0 1-.132.047 1 1 0 0 1-.016-.133c0-.562-.007-1.125 0-1.688.013-.869.615-1.64 1.525-1.772 1.118-.163 1.886.57 2.065 1.408q.023.112.042.222c.032.205.26.36.44.345a2.2 2.2 0 0 1 .898.1c.782.264 1.306.794 1.548 1.594.17.554.129 1.152-.115 1.676-.079.176-.098.343.023.501a.6.6 0 0 0 .17.143c.77.452 1.242 1.123 1.407 2.006.1.506.06 1.031-.117 1.516-.171.465-.502.776-.93 1.006-.617.335-1.248.302-1.889.1a2 2 0 0 1-.203-.095c-.222-.108-.451-.043-.568.162a.43.43 0 0 0 .139.584c.202.132.424.227.657.283q.372.099.757.1a1 1 0 0 1 .114.01m-2.698-6.333v-.018q.12.008.24 0a3.2 3.2 0 0 0 1.32-.497c.294-.187.545-.439.733-.737a.5.5 0 0 0 .092-.32.45.45 0 0 0-.325-.38.41.41 0 0 0-.456.193 1.65 1.65 0 0 1-.587.562c-.386.227-.798.356-1.25.292a.437.437 0 0 0-.51.354.44.44 0 0 0 .075.323.43.43 0 0 0 .275.179c.13.026.263.033.395.049zm1.266 1.875c-.132.023-.345.044-.55.097a.42.42 0 0 0-.28.234.44.44 0 0 0 .003.37c.086.193.289.289.522.227.248-.062.507-.062.755 0 .458.102.855.309 1.16.685a.4.4 0 0 0 .27.156.4.4 0 0 0 .298-.092c.188-.154.231-.39.092-.59a2 2 0 0 0-.293-.34c-.543-.476-1.18-.71-1.975-.747zM53.863 20.3q-1.582 0-2.653-.75c-1.071-.75-1.25-1.181-1.611-2.042q-.54-1.302-.54-2.913 0-1.632.54-2.923.54-1.29 1.581-2.032 1.051-.75 2.593-.75 1.53 0 2.652.75 1.131.74 1.752 2.032.62 1.281.62 2.923 0 1.62-.61 2.913-.61 1.29-1.722 2.042-1.11.75-2.602.75m-5.215 4.505V9.19h2.132v7.587h.3v8.027zm4.844-6.667q.942 0 1.552-.47.61-.471.9-1.271.301-.81.301-1.802 0-.981-.3-1.782-.3-.81-.931-1.281-.63-.48-1.602-.48-.92 0-1.501.45-.58.44-.86 1.241-.271.791-.271 1.852 0 1.05.27 1.852.28.8.871 1.25.6.441 1.572.441ZM63.925 20.3q-1.17 0-1.982-.44a3.1 3.1 0 0 1-1.23-1.191 3.3 3.3 0 0 1-.411-1.632q0-.78.26-1.401.26-.63.8-1.081.541-.46 1.402-.75.651-.212 1.521-.381a36 36 0 0 1 1.902-.31q1.032-.15 2.152-.32l-.86.49q.01-1.121-.501-1.652-.51-.53-1.722-.53a3.1 3.1 0 0 0-1.41.34q-.682.34-.952 1.171l-2.202-.69a4.1 4.1 0 0 1 1.522-2.203q1.131-.83 3.042-.83 1.441 0 2.533.47a3.15 3.15 0 0 1 1.631 1.54q.29.57.35 1.171.06.591.06 1.292V20h-2.11v-2.342l.35.38q-.73 1.17-1.712 1.722-.97.54-2.432.54Zm.48-1.922q.822 0 1.402-.29t.92-.71q.351-.42.471-.791a3 3 0 0 0 .21-1.051q.03-.6.03-.971l.741.22q-1.09.171-1.872.3-.78.13-1.34.25a9 9 0 0 0-.992.25q-.42.15-.71.351a1.55 1.55 0 0 0-.45.46 1.2 1.2 0 0 0-.151.611q0 .4.2.71.2.301.58.481.391.18.962.18Z" />
</svg>