<svg width="129" height="37" fill="none">
    <path fill="#001358"
        d="M2.539 29.5V8.53h3.16l7.252 14.854L20.203 8.53h3.16V29.5h-3.277V16.06L13.65 29.5h-1.398L5.83 16.06V29.5zm24.966-18.115V8.166h3.51v3.219zm0 18.115V13.773h3.51V29.5zm95.261-18.115V8.166h3.51v3.219zm0 18.115V13.773h3.51V29.5zm-76.584 0v-7.572q0-.743-.102-1.646a5.7 5.7 0 0 0-.48-1.733 3.3 3.3 0 0 0-1.107-1.383q-.729-.54-1.98-.539-.671 0-1.326.218a3.04 3.04 0 0 0-1.194.758q-.525.525-.845 1.456-.32.917-.32 2.359l-2.083-.888q0-2.01.772-3.64a6.2 6.2 0 0 1 2.301-2.593q1.514-.976 3.728-.976 1.747 0 2.883.583 1.137.582 1.806 1.485.67.903.99 1.922.321 1.02.408 1.937.102.903.102 1.471V29.5zm-10.907 0V13.773h3.13v4.878h.423V29.5zm24.537.437q-2.17 0-3.786-1.092t-2.505-2.971q-.888-1.878-.888-4.238 0-2.388.888-4.252.903-1.878 2.548-2.956 1.646-1.092 3.874-1.092 2.242 0 3.757 1.092 1.53 1.078 2.315 2.956.787 1.88.787 4.252 0 2.345-.787 4.238-.786 1.879-2.344 2.97-1.558 1.093-3.86 1.093Zm.539-3.146q1.412 0 2.271-.64.874-.656 1.267-1.82.408-1.165.408-2.695 0-1.543-.408-2.694-.393-1.164-1.237-1.805-.845-.656-2.185-.656-1.412 0-2.33.7-.917.684-1.354 1.863-.437 1.166-.437 2.592 0 1.442.422 2.622.437 1.165 1.326 1.849.888.684 2.257.684m3.946 2.709V18.462h-.437V8.53h3.54V29.5h-3.102Z" />
    <path fill="#3ADB10"
        d="M115.57 25.589c-.064.2-.109.374-.174.538-.259.66-.647 1.216-1.26 1.59a1.66 1.66 0 0 1-1.092.24l-.071-.008c-.492-.059-.754.134-.827.627a2.7 2.7 0 0 1-.975 1.685 2.62 2.62 0 0 1-3.575-.28 2.7 2.7 0 0 1-.709-1.818c-.005-1.054 0-2.11 0-3.164 0-.279.071-.336.338-.265a.2.2 0 0 1 .043.017c.696.326 1.339.722 1.802 1.368q.117.176.199.371c.16.361.492.512.816.372.341-.145.473-.493.328-.868a3.3 3.3 0 0 0-.802-1.174c-.669-.642-1.437-1.09-2.365-1.214-.106-.014-.213-.022-.341-.035-.006-.073-.017-.139-.017-.207v-1.937a.5.5 0 0 1 .142-.361 2.98 2.98 0 0 1 1.85-.982q.183-.027.368-.035a.3.3 0 0 1 .208.049c.062.04.107.101.129.172.173.423.43.805.756 1.122q.074.075.158.137a.61.61 0 0 0 .81-.09.63.63 0 0 0 .012-.827c-.071-.09-.171-.163-.24-.256-.605-.818-.806-1.72-.524-2.715.104-.366-.05-.702-.388-.819-.321-.112-.64.056-.777.409-.17.433-.225.846-.2 1.532a4.53 4.53 0 0 0-2.257.733c-.08-.197-.036-.377-.044-.55-.008-.175 0-.347 0-.52v-3.218a1 1 0 0 1 .153-.064c1.139-.324 1.986-1.033 2.578-2.058.131-.228.203-.492.296-.741a.63.63 0 0 0-.04-.502.62.62 0 0 0-.387-.315c-.323-.093-.64.093-.751.455-.265.86-.853 1.423-1.631 1.8a2 2 0 0 1-.192.067 2 2 0 0 1-.023-.192c0-.819-.01-1.638 0-2.457.02-1.263.896-2.385 2.22-2.578 1.626-.237 2.742.83 3.003 2.049q.035.162.062.323c.046.298.377.524.64.502a3.2 3.2 0 0 1 1.306.145c1.138.384 1.901 1.156 2.252 2.32a3.42 3.42 0 0 1-.167 2.438c-.115.255-.142.499.033.729a.9.9 0 0 0 .248.208c1.12.657 1.806 1.634 2.047 2.918a4.1 4.1 0 0 1-.171 2.205c-.249.676-.73 1.13-1.351 1.464-.899.487-1.817.439-2.75.145a2 2 0 0 1-.295-.137c-.323-.157-.656-.063-.827.235a.627.627 0 0 0 .203.85c.293.191.616.33.956.412.359.095.729.144 1.1.144.04 0 .078.004.167.016m-3.925-9.214v-.027q.174.012.347 0a4.6 4.6 0 0 0 1.921-.722 3.45 3.45 0 0 0 1.067-1.072.7.7 0 0 0 .134-.465.66.66 0 0 0-.152-.351.64.64 0 0 0-.32-.203.6.6 0 0 0-.377.029.6.6 0 0 0-.287.251 2.4 2.4 0 0 1-.853.818c-.563.331-1.162.519-1.82.425-.361-.052-.68.166-.74.515a.64.64 0 0 0 .107.47c.095.137.239.23.401.26.19.039.383.049.574.072zm1.842 2.729c-.193.032-.502.062-.8.14a.616.616 0 0 0-.466.61q.001.14.062.268c.125.282.42.421.76.33.361-.09.738-.09 1.098 0 .666.15 1.244.45 1.688.998a.58.58 0 0 0 .393.226.57.57 0 0 0 .433-.133c.274-.224.337-.567.134-.858a2.7 2.7 0 0 0-.427-.495c-.789-.693-1.717-1.035-2.872-1.087h-.003Z" />
    <path fill="#001358"
        d="M78.862 29.937q-2.3 0-3.859-1.092-1.557-1.093-2.344-2.971-.787-1.893-.787-4.238 0-2.373.787-4.252.786-1.878 2.3-2.956 1.53-1.092 3.772-1.092 2.229 0 3.86 1.092 1.644 1.078 2.548 2.956.903 1.864.903 4.252 0 2.36-.889 4.238-.888 1.879-2.505 2.97-1.616 1.093-3.786 1.093m-7.587 6.553V13.773h3.102V24.81h.437v11.68zm7.049-9.699q1.369 0 2.257-.684t1.31-1.85q.438-1.18.437-2.62 0-1.428-.437-2.593-.436-1.179-1.354-1.864-.917-.699-2.33-.699-1.34 0-2.184.656-.844.64-1.253 1.805-.393 1.15-.393 2.694 0 1.53.393 2.694.409 1.166 1.267 1.82.874.642 2.287.641M93.5 29.937q-1.703 0-2.883-.64-1.18-.656-1.79-1.734a4.8 4.8 0 0 1-.598-2.373q0-1.136.379-2.04a4 4 0 0 1 1.165-1.572q.787-.669 2.038-1.092a19 19 0 0 1 2.214-.553 52 52 0 0 1 2.767-.452q1.5-.217 3.13-.466l-1.252.714q.015-1.632-.728-2.403t-2.504-.772q-1.064 0-2.054.495t-1.383 1.704l-3.204-1.005q.582-1.995 2.214-3.203 1.645-1.21 4.427-1.21 2.096.001 3.684.685a4.57 4.57 0 0 1 2.373 2.243 4.8 4.8 0 0 1 .51 1.704q.087.86.087 1.878V29.5H99.02v-3.408l.51.554q-1.065 1.703-2.49 2.505-1.413.786-3.54.786m.7-2.796q1.194 0 2.038-.422.845-.423 1.34-1.034.51-.612.685-1.15.276-.67.305-1.53.044-.873.044-1.412l1.078.32q-1.587.247-2.724.437a44 44 0 0 0-1.95.364q-.816.16-1.443.364a4.5 4.5 0 0 0-1.033.51q-.423.29-.656.67a1.75 1.75 0 0 0-.218.888q0 .582.291 1.034.291.437.845.699.567.261 1.398.262" />
</svg>