<svg width="113" height="19" fill="none">
    <path fill="#FCAD38"
        d="m10.008.244 2.748 5.761 6.144.924c.16.025.291.14.34.298s.009.33-.106.446l-4.445 4.484 1.05 6.332a.44.44 0 0 1-.168.427.41.41 0 0 1-.444.033l-5.496-2.99-5.495 2.99a.41.41 0 0 1-.445-.032.44.44 0 0 1-.167-.426l1.05-6.334L.126 7.673a.45.45 0 0 1-.106-.446.43.43 0 0 1 .34-.298l6.144-.924L9.255.244A.42.42 0 0 1 9.63 0c.16 0 .307.095.377.244Zm23.371 0 2.617 5.761 5.851.924c.152.025.277.14.325.298a.46.46 0 0 1-.102.446l-4.233 4.484 1 6.332a.45.45 0 0 1-.16.427.38.38 0 0 1-.424.033l-5.233-2.99-5.234 2.99a.38.38 0 0 1-.424-.032.45.45 0 0 1-.159-.426l1-6.334-4.235-4.484a.46.46 0 0 1-.101-.446.41.41 0 0 1 .324-.298l5.851-.924L32.661.244A.4.4 0 0 1 33.02 0c.153 0 .292.095.359.244m23.406 0 2.748 5.761 6.144.924c.159.025.29.14.34.298s.008.33-.106.446l-4.445 4.484 1.05 6.332a.44.44 0 0 1-.168.427.41.41 0 0 1-.445.033l-5.495-2.99-5.495 2.99a.41.41 0 0 1-.445-.032.44.44 0 0 1-.167-.426l1.05-6.334-4.447-4.484a.45.45 0 0 1-.107-.446.43.43 0 0 1 .341-.298l6.144-.924 2.75-5.761A.42.42 0 0 1 56.407 0c.16 0 .307.095.377.244Zm23.371 0 2.617 5.761 5.851.924c.151.025.277.14.324.298a.46.46 0 0 1-.101.446l-4.233 4.484.999 6.332a.45.45 0 0 1-.16.427.38.38 0 0 1-.423.033l-5.233-2.99-5.234 2.99a.38.38 0 0 1-.424-.032.45.45 0 0 1-.159-.426l1-6.334-4.235-4.484a.46.46 0 0 1-.101-.446.41.41 0 0 1 .324-.298l5.851-.924L79.438.244A.4.4 0 0 1 79.797 0c.153 0 .292.095.359.244m23.406 0 2.749 5.761 6.143.924a.43.43 0 0 1 .341.298.45.45 0 0 1-.107.446l-4.445 4.484 1.05 6.332a.44.44 0 0 1-.168.427.41.41 0 0 1-.444.033l-5.496-2.99-5.495 2.99a.41.41 0 0 1-.445-.032.44.44 0 0 1-.167-.426l1.05-6.334-4.446-4.484a.45.45 0 0 1-.107-.446.43.43 0 0 1 .34-.298l6.144-.924 2.75-5.761a.42.42 0 0 1 .376-.244c.161 0 .307.095.377.244" />
</svg>