<svg width="88" height="25" viewBox="0 0 88 25" fill="none" xmlns="http://www.w3.org/2000/svg">
    <g id="Group 9">
        <path id="M"
            d="M1.40133 20V5.58637H3.57338L8.55809 15.796L13.5428 5.58637H15.7149V20H13.4627V10.7613L9.03855 20H8.07764L3.66346 10.7613V20H1.40133Z"
            fill="white" />
        <path id="i"
            d="M18.5622 7.54829V5.33619H20.9745V7.54829H18.5622ZM18.5622 20.0001V9.18984H20.9745V20.0001H18.5622Z"
            fill="white" />
        <path id="i_2"
            d="M84.0411 7.54829V5.33619H86.4534V7.54829H84.0411ZM84.0411 20.0001V9.18984H86.4534V20.0001H84.0411Z"
            fill="white" />
        <path id="n"
            d="M31.4003 20.0001V14.7951C31.4003 14.4548 31.3769 14.0778 31.3302 13.6641C31.2835 13.2503 31.1734 12.8533 30.9999 12.4729C30.8331 12.0859 30.5795 11.7689 30.2392 11.522C29.9055 11.2751 29.4518 11.1517 28.8779 11.1517C28.5709 11.1517 28.2673 11.2017 27.967 11.3018C27.6667 11.4019 27.3931 11.5754 27.1462 11.8223C26.906 12.0626 26.7125 12.3962 26.5657 12.8233C26.4189 13.2437 26.3455 13.7842 26.3455 14.4448L24.9141 13.8342C24.9141 12.9134 25.091 12.0792 25.4446 11.3319C25.805 10.5845 26.3321 9.9906 27.0261 9.55018C27.7201 9.10309 28.5743 8.87954 29.5885 8.87954C30.3893 8.87954 31.0499 9.013 31.5704 9.27992C32.0909 9.54684 32.5046 9.88716 32.8116 10.3009C33.1186 10.7146 33.3454 11.155 33.4922 11.6221C33.639 12.0892 33.7325 12.533 33.7725 12.9534C33.8192 13.3671 33.8426 13.7041 33.8426 13.9644V20.0001H31.4003ZM23.9032 20.0001V9.18984H26.0552V12.543H26.3455V20.0001H23.9032Z"
            fill="white" />
        <path id="d"
            d="M40.7687 20.3003C39.7744 20.3003 38.9069 20.0501 38.1662 19.5496C37.4255 19.0492 36.8516 18.3685 36.4446 17.5077C36.0375 16.6469 35.834 15.676 35.834 14.5949C35.834 13.5006 36.0375 12.5263 36.4446 11.6722C36.8583 10.8114 37.4422 10.1341 38.1962 9.64026C38.9503 9.13979 39.8378 8.88955 40.8587 8.88955C41.8864 8.88955 42.7472 9.13979 43.4412 9.64026C44.1418 10.1341 44.6723 10.8114 45.0327 11.6722C45.393 12.533 45.5732 13.5073 45.5732 14.5949C45.5732 15.6693 45.393 16.6402 45.0327 17.5077C44.6723 18.3685 44.1352 19.0492 43.4212 19.5496C42.7072 20.0501 41.823 20.3003 40.7687 20.3003ZM41.139 18.1383C41.7863 18.1383 42.3068 17.9915 42.7005 17.6979C43.1009 17.3976 43.3911 16.9805 43.5713 16.4467C43.7582 15.9129 43.8516 15.2956 43.8516 14.5949C43.8516 13.8876 43.7582 13.2704 43.5713 12.7432C43.3911 12.2094 43.1075 11.7956 42.7205 11.502C42.3335 11.2017 41.833 11.0516 41.2191 11.0516C40.5718 11.0516 40.038 11.2118 39.6176 11.5321C39.1972 11.8457 38.8869 12.2728 38.6867 12.8133C38.4865 13.3471 38.3864 13.941 38.3864 14.5949C38.3864 15.2556 38.4832 15.8561 38.6767 16.3967C38.8769 16.9305 39.1805 17.3542 39.5875 17.6679C39.9946 17.9815 40.5117 18.1383 41.139 18.1383ZM43.8516 20.0001V12.4129H43.5513V5.58643H45.9836V20.0001H43.8516Z"
            fill="white" />
        <path id="Vector"
            d="M79.0938 17.2452C79.0498 17.3828 79.019 17.502 78.9745 17.6153C78.7965 18.0688 78.5295 18.4507 78.1086 18.708C77.8843 18.8484 77.6194 18.9066 77.3581 18.8729L77.3092 18.8674C76.9708 18.8272 76.7909 18.9598 76.7405 19.2981C76.6682 19.7561 76.429 20.1697 76.0703 20.4568C75.7117 20.7438 75.2599 20.8834 74.8046 20.8477C74.3494 20.8119 73.924 20.6036 73.613 20.264C73.302 19.9243 73.1281 19.4783 73.1259 19.0145C73.1225 18.2898 73.1259 17.5646 73.1259 16.8394C73.1259 16.6482 73.1748 16.609 73.3581 16.6576C73.3684 16.6605 73.3784 16.6643 73.388 16.6691C73.8661 16.8931 74.3081 17.1658 74.6259 17.6098C74.68 17.6898 74.7259 17.7752 74.7628 17.8646C74.8733 18.113 75.1012 18.2163 75.3236 18.1199C75.5583 18.0206 75.6488 17.7812 75.549 17.5239C75.4265 17.2167 75.2383 16.941 74.998 16.7167C74.5379 16.2757 74.0104 15.9672 73.3728 15.8823C73.2995 15.8724 73.2261 15.8669 73.1381 15.858C73.1337 15.8083 73.1264 15.7626 73.1264 15.7159C73.1264 15.2724 73.1264 14.8288 73.1264 14.3848C73.1253 14.3388 73.1334 14.2931 73.1502 14.2504C73.167 14.2077 73.1922 14.1689 73.2242 14.1364C73.5547 13.764 74.0057 13.5245 74.4954 13.4614C74.5795 13.4495 74.6641 13.4405 74.7486 13.4371C74.7987 13.4309 74.8494 13.4428 74.8917 13.4707C74.934 13.4985 74.9654 13.5406 74.9804 13.5895C75.0993 13.8801 75.276 14.1426 75.4996 14.3604C75.5333 14.3949 75.5698 14.4265 75.6087 14.4548C75.6929 14.5151 75.796 14.5421 75.8985 14.5306C76.001 14.5192 76.0958 14.4701 76.1651 14.3926C76.2345 14.3152 76.2736 14.2146 76.2751 14.1099C76.2767 14.0052 76.2405 13.9035 76.1734 13.824C76.1245 13.7619 76.056 13.7122 76.0086 13.6482C75.5925 13.0859 75.4547 12.4655 75.6483 11.7821C75.7197 11.5307 75.6141 11.2998 75.3818 11.2193C75.1613 11.1423 74.9418 11.2575 74.8474 11.4999C74.7306 11.798 74.6929 12.0816 74.71 12.5534C74.1584 12.5803 73.6234 12.754 73.1586 13.0571C73.1039 12.922 73.1337 12.7983 73.1283 12.6786C73.1229 12.5589 73.1283 12.4407 73.1283 12.3215V10.1097C73.1626 10.0929 73.1979 10.0781 73.2339 10.0655C74.0162 9.84295 74.5985 9.35569 75.0058 8.65088C75.0958 8.49442 75.1452 8.31313 75.2092 8.14177C75.228 8.08537 75.2353 8.02566 75.2306 7.96631C75.2259 7.90695 75.2093 7.8492 75.1818 7.7966C75.1543 7.74399 75.1166 7.69765 75.0709 7.6604C75.0251 7.62316 74.9724 7.5958 74.9159 7.58C74.6939 7.51642 74.4758 7.64407 74.3995 7.89292C74.2172 8.48449 73.8128 8.87092 73.2784 9.13019C73.2353 9.14805 73.1912 9.16347 73.1464 9.17638C73.139 9.13265 73.1338 9.08855 73.1308 9.04426C73.1308 8.48151 73.1234 7.91875 73.1308 7.35549C73.144 6.48727 73.7463 5.71639 74.6562 5.58377C75.7739 5.42086 76.5416 6.15349 76.7205 6.99191C76.7361 7.06542 76.7513 7.14092 76.763 7.21394C76.7948 7.41857 77.0222 7.57404 77.2031 7.55914C77.5058 7.52979 77.8113 7.56359 78.1008 7.65848C78.883 7.92272 79.4072 8.45319 79.6487 9.25288C79.8185 9.80638 79.7775 10.4045 79.5338 10.9287C79.4551 11.1046 79.436 11.272 79.5568 11.4299C79.6042 11.4881 79.6621 11.5367 79.7274 11.5729C80.497 12.0249 80.9688 12.696 81.1341 13.5786C81.234 14.0852 81.1933 14.61 81.0167 15.0945C80.8456 15.5594 80.5146 15.8709 80.0878 16.1008C79.4702 16.4356 78.839 16.4023 78.1981 16.2002C78.1281 16.1739 78.0601 16.1425 77.9947 16.1063C77.7727 15.998 77.5439 16.0626 77.4265 16.2677C77.3688 16.364 77.3511 16.4796 77.3772 16.5891C77.4033 16.6986 77.4712 16.7931 77.5659 16.8518C77.7674 16.9836 77.9897 17.0793 78.223 17.135C78.47 17.2005 78.7241 17.2339 78.9794 17.2343C79.0067 17.2338 79.0331 17.2368 79.0938 17.2452ZM76.3959 10.9118V10.8935C76.4755 10.8987 76.5553 10.8987 76.6349 10.8935C77.1058 10.8294 77.5567 10.6598 77.9551 10.3968C78.2503 10.2095 78.5008 9.95791 78.6884 9.66017C78.7553 9.5679 78.788 9.45464 78.7809 9.3403C78.7706 9.25109 78.7342 9.16707 78.6763 9.09921C78.6184 9.03134 78.5417 8.98277 78.4562 8.95983C78.3699 8.9379 78.2789 8.9448 78.1967 8.97951C78.1146 9.01422 78.0456 9.0749 78 9.15254C77.8537 9.38673 77.652 9.58002 77.4133 9.71481C77.0266 9.94229 76.6149 10.0709 76.1621 10.0064C75.9143 9.9711 75.6952 10.1206 75.6537 10.3605C75.6356 10.474 75.6621 10.5903 75.7274 10.6842C75.7928 10.7781 75.8918 10.8422 76.0032 10.8627C76.1333 10.889 76.2663 10.896 76.3978 10.9118H76.3959ZM77.6622 12.7874C77.5297 12.8097 77.317 12.8306 77.1126 12.8837C77.0516 12.8991 76.9947 12.9281 76.9461 12.9686C76.8975 13.0091 76.8585 13.0602 76.8318 13.1181C76.8051 13.1759 76.7915 13.2391 76.792 13.3029C76.7924 13.3668 76.8069 13.4298 76.8344 13.4872C76.9205 13.6809 77.1234 13.7768 77.3571 13.7147C77.605 13.6526 77.8641 13.6526 78.112 13.7147C78.5696 13.817 78.9667 14.0237 79.2717 14.4002C79.3041 14.4433 79.3448 14.4794 79.3913 14.5061C79.4378 14.5328 79.4892 14.5497 79.5423 14.5557C79.5954 14.5617 79.6492 14.5567 79.7003 14.541C79.7515 14.5252 79.799 14.4991 79.8399 14.4642C80.0281 14.3103 80.0711 14.0743 79.9318 13.8742C79.8479 13.7491 79.7494 13.6349 79.6384 13.5339C79.0962 13.0581 78.4582 12.8231 77.6641 12.7874H77.6622Z"
            fill="white" />
        <path id="p"
            d="M53.8628 20.3003C52.8085 20.3003 51.9243 20.0501 51.2103 19.5496C50.4963 19.0492 49.9591 18.3685 49.5988 17.5077C49.2385 16.6402 49.0583 15.6693 49.0583 14.5949C49.0583 13.5073 49.2385 12.533 49.5988 11.6722C49.9591 10.8114 50.4863 10.1341 51.1803 9.64026C51.881 9.13979 52.7451 8.88955 53.7728 8.88955C54.7937 8.88955 55.6779 9.13979 56.4253 9.64026C57.1793 10.1341 57.7632 10.8114 58.1769 11.6722C58.5906 12.5263 58.7975 13.5006 58.7975 14.5949C58.7975 15.676 58.594 16.6469 58.1869 17.5077C57.7799 18.3685 57.206 19.0492 56.4653 19.5496C55.7246 20.0501 54.8571 20.3003 53.8628 20.3003ZM48.6479 24.8046V9.18984H50.7799V16.777H51.0802V24.8046H48.6479ZM53.4925 18.1383C54.1197 18.1383 54.6369 17.9815 55.044 17.6679C55.451 17.3542 55.7513 16.9305 55.9448 16.3967C56.145 15.8561 56.2451 15.2556 56.2451 14.5949C56.2451 13.941 56.145 13.3471 55.9448 12.8133C55.7446 12.2728 55.4343 11.8457 55.0139 11.5321C54.5935 11.2118 54.0597 11.0516 53.4124 11.0516C52.7985 11.0516 52.298 11.2017 51.911 11.502C51.524 11.7956 51.237 12.2094 51.0502 12.7432C50.87 13.2704 50.7799 13.8876 50.7799 14.5949C50.7799 15.2956 50.87 15.9129 51.0502 16.4467C51.237 16.9805 51.5273 17.3976 51.921 17.6979C52.3214 17.9915 52.8452 18.1383 53.4925 18.1383Z"
            fill="white" />
        <path id="a"
            d="M63.9251 20.3003C63.1444 20.3003 62.4838 20.1535 61.9433 19.8599C61.4027 19.5596 60.9924 19.1626 60.7121 18.6688C60.4385 18.175 60.3017 17.6312 60.3017 17.0373C60.3017 16.5168 60.3885 16.0497 60.5619 15.6359C60.7354 15.2155 61.0024 14.8552 61.3627 14.5549C61.723 14.248 62.1902 13.9977 62.764 13.8042C63.1978 13.6641 63.7049 13.5373 64.2855 13.4238C64.8727 13.3104 65.5066 13.207 66.1873 13.1135C66.8746 13.0135 67.5919 12.9067 68.3393 12.7932L67.4785 13.2837C67.4852 12.5363 67.3183 11.9858 66.978 11.6321C66.6377 11.2785 66.0638 11.1016 65.2564 11.1016C64.7693 11.1016 64.2988 11.2151 63.8451 11.442C63.3913 11.6688 63.0743 12.0592 62.8942 12.6131L60.6921 11.9224C60.959 11.0082 61.4661 10.2742 62.2135 9.72034C62.9676 9.16648 63.9819 8.88955 65.2564 8.88955C66.2173 8.88955 67.0614 9.04637 67.7888 9.36C68.5228 9.67363 69.0667 10.1874 69.4203 10.9015C69.6138 11.2818 69.7306 11.6722 69.7707 12.0726C69.8107 12.4663 69.8307 12.8967 69.8307 13.3638V20.0001H67.7187V17.6578L68.069 18.0382C67.5819 18.8189 67.0114 19.3928 66.3574 19.7598C65.7102 20.1202 64.8994 20.3003 63.9251 20.3003ZM64.4056 18.3785C64.9528 18.3785 65.4199 18.2818 65.8069 18.0883C66.1939 17.8947 66.5009 17.6578 66.7278 17.3776C66.9613 17.0973 67.1181 16.8337 67.1982 16.5868C67.325 16.2799 67.3951 15.9295 67.4084 15.5358C67.4284 15.1355 67.4385 14.8118 67.4385 14.5649L68.1792 14.7851C67.4518 14.8986 66.8279 14.9987 66.3074 15.0854C65.7869 15.1722 65.3398 15.2556 64.9661 15.3357C64.5924 15.4091 64.2621 15.4925 63.9752 15.5859C63.6949 15.686 63.458 15.8028 63.2645 15.9362C63.071 16.0697 62.9208 16.2232 62.8141 16.3967C62.714 16.5702 62.6639 16.7737 62.6639 17.0072C62.6639 17.2741 62.7307 17.511 62.8641 17.7179C62.9976 17.9181 63.1911 18.0782 63.4447 18.1984C63.7049 18.3185 64.0252 18.3785 64.4056 18.3785Z"
            fill="white" />
    </g>
</svg>