<svg width="53" height="50" viewBox="0 0 53 50" fill="none" xmlns="http://www.w3.org/2000/svg">
    <g id="Group 12">
        <path id="Star 1"
            d="M29.4266 0C29.4266 0 30.7058 11.9399 35.6885 16.9226C40.6713 21.9053 52.6112 23.1845 52.6112 23.1845C52.6112 23.1845 40.6713 24.4638 35.6885 29.4465C30.7058 34.4292 29.4266 46.3691 29.4266 46.3691C29.4266 46.3691 28.1474 34.4292 23.1647 29.4465C18.182 24.4638 6.24207 23.1845 6.24207 23.1845C6.24207 23.1845 18.182 21.9053 23.1647 16.9226C28.1474 11.9399 29.4266 0 29.4266 0Z"
            fill="url(#paint0_linear_2_1022)" />
        <path id="Star 2"
            d="M10.7006 24.968C10.7006 24.968 11.291 30.4787 13.5907 32.7784C15.8905 35.0781 21.4012 35.6685 21.4012 35.6685C21.4012 35.6685 15.8905 36.2589 13.5907 38.5586C11.291 40.8584 10.7006 46.3691 10.7006 46.3691C10.7006 46.3691 10.1102 40.8584 7.8105 38.5586C5.51078 36.2589 6.10352e-05 35.6685 6.10352e-05 35.6685C6.10352e-05 35.6685 5.51078 35.0781 7.8105 32.7784C10.1102 30.4787 10.7006 24.968 10.7006 24.968Z"
            fill="url(#paint1_linear_2_1022)" />
        <path id="Star 3"
            d="M19.6177 38.3437C19.6177 38.3437 19.9129 41.099 21.0628 42.2489C22.2127 43.3988 24.968 43.694 24.968 43.694C24.968 43.694 22.2127 43.9892 21.0628 45.139C19.9129 46.2889 19.6177 49.0442 19.6177 49.0442C19.6177 49.0442 19.3225 46.2889 18.1727 45.139C17.0228 43.9892 14.2675 43.694 14.2675 43.694C14.2675 43.694 17.0228 43.3988 18.1727 42.2489C19.3225 41.099 19.6177 38.3437 19.6177 38.3437Z"
            fill="url(#paint2_linear_2_1022)" />
    </g>
    <defs>
        <linearGradient id="paint0_linear_2_1022" x1="29.4266" y1="0" x2="29.4266" y2="46.3691"
            gradientUnits="userSpaceOnUse">
            <stop stop-color="#99FB80" />
            <stop offset="1" stop-color="#0A5C35" />
        </linearGradient>
        <linearGradient id="paint1_linear_2_1022" x1="10.7006" y1="24.968" x2="10.7006" y2="46.3691"
            gradientUnits="userSpaceOnUse">
            <stop stop-color="#99FB80" />
            <stop offset="1" stop-color="#0A5C35" />
        </linearGradient>
        <linearGradient id="paint2_linear_2_1022" x1="19.6177" y1="38.3437" x2="19.6177"
            y2="49.0442" gradientUnits="userSpaceOnUse">
            <stop stop-color="#99FB80" />
            <stop offset="1" stop-color="#0A5C35" />
        </linearGradient>
    </defs>
</svg>