<svg width="129" height="36" viewBox="0 0 129 36" fill="none" xmlns="http://www.w3.org/2000/svg">
    <path
        d="M2.53871 29V8.03041H5.69871L12.9507 22.8839L20.2027 8.03041H23.3627V29H20.0862V15.5591L13.6497 29H12.2517L5.82977 15.5591V29H2.53871Z"
        fill="#001358" />
    <path
        d="M27.5048 10.8846V7.66635H31.0143V10.8846H27.5048ZM27.5048 29V13.2728H31.0143V29H27.5048Z"
        fill="#001358" />
    <path
        d="M122.766 10.8846V7.66635H126.276V10.8846H122.766ZM122.766 29V13.2728H126.276V29H122.766Z"
        fill="#001358" />
    <path
        d="M46.1819 29V21.4276C46.1819 20.9325 46.1479 20.384 46.08 19.7821C46.012 19.1802 45.8518 18.6026 45.5994 18.0492C45.3567 17.4861 44.9878 17.025 44.4927 16.6658C44.0073 16.3066 43.3471 16.127 42.5122 16.127C42.0656 16.127 41.6239 16.1998 41.187 16.3454C40.7502 16.4911 40.3521 16.7435 39.9929 17.1027C39.6434 17.4522 39.3619 17.9376 39.1483 18.5589C38.9348 19.1705 38.828 19.9569 38.828 20.918L36.7456 20.0297C36.7456 18.6899 37.0028 17.4764 37.5174 16.3891C38.0416 15.3018 38.8085 14.4378 39.8182 13.797C40.8278 13.1466 42.0705 12.8214 43.5461 12.8214C44.7111 12.8214 45.6722 13.0155 46.4294 13.4039C47.1867 13.7922 47.7886 14.2873 48.2352 14.8892C48.6817 15.4911 49.0118 16.1319 49.2254 16.8114C49.439 17.491 49.5749 18.1366 49.6331 18.7482C49.7011 19.3501 49.7351 19.8404 49.7351 20.219V29H46.1819ZM35.2748 29V13.2728H38.4057V18.1511H38.828V29H35.2748Z"
        fill="#001358" />
    <path
        d="M59.8119 29.4369C58.3654 29.4369 57.1034 29.0728 56.0258 28.3447C54.9482 27.6166 54.1133 26.6264 53.5211 25.374C52.9289 24.1217 52.6328 22.7091 52.6328 21.1364C52.6328 19.5443 52.9289 18.1269 53.5211 16.8842C54.123 15.6319 54.9724 14.6465 56.0694 13.9281C57.1665 13.2 58.4577 12.8359 59.943 12.8359C61.4381 12.8359 62.6904 13.2 63.7001 13.9281C64.7194 14.6465 65.4912 15.6319 66.0154 16.8842C66.5397 18.1366 66.8018 19.554 66.8018 21.1364C66.8018 22.6994 66.5397 24.1119 66.0154 25.374C65.4912 26.6264 64.7097 27.6166 63.6709 28.3447C62.6322 29.0728 61.3458 29.4369 59.8119 29.4369ZM60.3507 26.2914C61.2924 26.2914 62.0497 26.0778 62.6224 25.6507C63.2049 25.2138 63.6272 24.6071 63.8894 23.8304C64.1612 23.0538 64.2971 22.1558 64.2971 21.1364C64.2971 20.1073 64.1612 19.2093 63.8894 18.4424C63.6272 17.6657 63.2146 17.0638 62.6516 16.6367C62.0885 16.1998 61.3604 15.9814 60.4672 15.9814C59.5255 15.9814 58.7489 16.2144 58.1373 16.6804C57.5257 17.1366 57.0742 17.758 56.783 18.5443C56.4918 19.321 56.3461 20.185 56.3461 21.1364C56.3461 22.0975 56.4869 22.9712 56.7684 23.7576C57.0597 24.5343 57.5014 25.1507 58.0936 25.607C58.6858 26.0633 59.4382 26.2914 60.3507 26.2914ZM64.2971 29V17.9618H63.8602V8.03041H67.3989V29H64.2971Z"
        fill="#001358" />
    <path
        d="M115.57 25.089C115.506 25.2892 115.461 25.4626 115.396 25.6274C115.137 26.2871 114.749 26.8428 114.136 27.2171C113.81 27.4213 113.425 27.506 113.044 27.457L112.973 27.4491C112.481 27.3905 112.219 27.5835 112.146 28.0756C112.041 28.7419 111.693 29.3436 111.171 29.7613C110.649 30.1789 109.992 30.3819 109.33 30.33C108.667 30.278 108.048 29.9749 107.596 29.4808C107.144 28.9867 106.891 28.3378 106.887 27.663C106.882 26.6087 106.887 25.5536 106.887 24.4986C106.887 24.2204 106.958 24.1633 107.225 24.2341C107.24 24.2383 107.255 24.2439 107.269 24.2508C107.964 24.5767 108.607 24.9734 109.07 25.6194C109.148 25.7357 109.215 25.86 109.269 25.9901C109.43 26.3514 109.761 26.5017 110.085 26.3615C110.426 26.217 110.558 25.8687 110.413 25.4944C110.234 25.0474 109.961 24.6463 109.611 24.3201C108.942 23.6785 108.174 23.2297 107.247 23.1061C107.14 23.0917 107.033 23.0837 106.905 23.0707C106.899 22.9985 106.888 22.932 106.888 22.8641C106.888 22.2188 106.888 21.5735 106.888 20.9274C106.886 20.8606 106.898 20.7941 106.923 20.732C106.947 20.6699 106.984 20.6135 107.03 20.5661C107.511 20.0244 108.167 19.6759 108.88 19.5841C109.002 19.5668 109.125 19.5538 109.248 19.5487C109.321 19.5398 109.395 19.5571 109.456 19.5976C109.518 19.6381 109.564 19.6993 109.585 19.7705C109.758 20.1933 110.015 20.5752 110.341 20.892C110.39 20.9422 110.443 20.9882 110.499 21.0293C110.622 21.1171 110.772 21.1563 110.921 21.1397C111.07 21.123 111.208 21.0516 111.309 20.9389C111.41 20.8262 111.467 20.6799 111.469 20.5276C111.471 20.3752 111.419 20.2273 111.321 20.1116C111.25 20.0213 111.15 19.949 111.081 19.8558C110.476 19.0378 110.275 18.1353 110.557 17.1409C110.661 16.7753 110.507 16.4393 110.169 16.3222C109.849 16.2102 109.529 16.3779 109.392 16.7305C109.222 17.1641 109.167 17.5767 109.192 18.2632C108.389 18.3022 107.611 18.5549 106.935 18.9959C106.855 18.7993 106.899 18.6194 106.891 18.4453C106.883 18.2711 106.891 18.0991 106.891 17.9257V14.7079C106.941 14.6834 106.992 14.6619 107.045 14.6436C108.183 14.3198 109.03 13.611 109.622 12.5856C109.753 12.3579 109.825 12.0942 109.918 11.8449C109.946 11.7628 109.956 11.676 109.949 11.5896C109.943 11.5033 109.918 11.4192 109.878 11.3427C109.838 11.2662 109.783 11.1988 109.717 11.1446C109.65 11.0904 109.574 11.0506 109.491 11.0276C109.169 10.9351 108.851 11.1208 108.74 11.4828C108.475 12.3435 107.887 12.9057 107.109 13.2829C107.047 13.3089 106.982 13.3313 106.917 13.3501C106.906 13.2865 106.899 13.2223 106.894 13.1579C106.894 12.3391 106.884 11.5204 106.894 10.701C106.914 9.43783 107.79 8.31633 109.114 8.12339C110.74 7.88638 111.857 8.95223 112.117 10.172C112.14 10.279 112.162 10.3888 112.179 10.495C112.225 10.7927 112.556 11.0189 112.819 10.9972C113.259 10.9545 113.704 11.0037 114.125 11.1418C115.263 11.5262 116.026 12.298 116.377 13.4614C116.624 14.2666 116.564 15.1368 116.21 15.8995C116.095 16.1553 116.068 16.3988 116.243 16.6286C116.312 16.7133 116.397 16.784 116.492 16.8367C117.611 17.4943 118.298 18.4706 118.538 19.7546C118.683 20.4917 118.624 21.2552 118.367 21.9601C118.118 22.6364 117.637 23.0895 117.016 23.4241C116.117 23.9111 115.199 23.8627 114.267 23.5686C114.165 23.5304 114.066 23.4848 113.971 23.432C113.648 23.2745 113.315 23.3685 113.144 23.6669C113.06 23.8069 113.034 23.9751 113.072 24.1344C113.11 24.2938 113.209 24.4313 113.347 24.5167C113.64 24.7083 113.963 24.8476 114.303 24.9286C114.662 25.0239 115.032 25.0725 115.403 25.0731C115.443 25.0724 115.481 25.0767 115.57 25.089ZM111.645 15.8749V15.8482C111.76 15.8558 111.877 15.8558 111.992 15.8482C112.677 15.755 113.334 15.5082 113.913 15.1256C114.342 14.8531 114.707 14.4871 114.98 14.0539C115.077 13.9197 115.125 13.7549 115.114 13.5886C115.1 13.4588 115.047 13.3365 114.962 13.2378C114.878 13.1391 114.766 13.0684 114.642 13.035C114.517 13.0031 114.384 13.0132 114.265 13.0637C114.145 13.1142 114.045 13.2024 113.978 13.3154C113.766 13.6561 113.472 13.9373 113.125 14.1334C112.562 14.4644 111.963 14.6515 111.305 14.5576C110.944 14.5063 110.625 14.7238 110.565 15.0728C110.539 15.238 110.577 15.4071 110.672 15.5437C110.767 15.6803 110.911 15.7735 111.073 15.8034C111.263 15.8417 111.456 15.8518 111.647 15.8749H111.645ZM113.487 18.6035C113.294 18.636 112.985 18.6664 112.687 18.7437C112.599 18.766 112.516 18.8082 112.445 18.8672C112.374 18.9262 112.318 19.0004 112.279 19.0846C112.24 19.1688 112.22 19.2607 112.221 19.3536C112.222 19.4465 112.243 19.5381 112.283 19.6217C112.408 19.9035 112.703 20.043 113.043 19.9526C113.404 19.8623 113.781 19.8623 114.141 19.9526C114.807 20.1015 115.385 20.4021 115.829 20.9499C115.876 21.0127 115.935 21.0651 116.003 21.104C116.07 21.1429 116.145 21.1674 116.222 21.1762C116.3 21.1849 116.378 21.1776 116.452 21.1547C116.527 21.1318 116.596 21.0939 116.655 21.0431C116.929 20.8191 116.992 20.4758 116.789 20.1846C116.667 20.0027 116.523 19.8365 116.362 19.6896C115.573 18.9973 114.645 18.6555 113.49 18.6035H113.487Z"
        fill="#3ADB10" />
    <path
        d="M78.8625 29.4369C77.3286 29.4369 76.0422 29.0728 75.0035 28.3447C73.9647 27.6166 73.1832 26.6264 72.659 25.374C72.1347 24.1119 71.8726 22.6994 71.8726 21.1364C71.8726 19.554 72.1347 18.1366 72.659 16.8842C73.1832 15.6319 73.9501 14.6465 74.9598 13.9281C75.9791 13.2 77.2363 12.8359 78.7314 12.8359C80.2167 12.8359 81.5031 13.2 82.5904 13.9281C83.6874 14.6465 84.5369 15.6319 85.1388 16.8842C85.7407 18.1269 86.0416 19.5443 86.0416 21.1364C86.0416 22.7091 85.7455 24.1217 85.1533 25.374C84.5611 26.6264 83.7262 27.6166 82.6486 28.3447C81.571 29.0728 80.309 29.4369 78.8625 29.4369ZM71.2755 35.9899V13.2728H74.3773V24.311H74.8142V35.9899H71.2755ZM78.3237 26.2914C79.2362 26.2914 79.9886 26.0633 80.5808 25.607C81.173 25.1507 81.6099 24.5343 81.8914 23.7576C82.1826 22.9712 82.3283 22.0975 82.3283 21.1364C82.3283 20.185 82.1826 19.321 81.8914 18.5443C81.6002 17.758 81.1487 17.1366 80.5371 16.6804C79.9255 16.2144 79.1489 15.9814 78.2072 15.9814C77.314 15.9814 76.5859 16.1998 76.0228 16.6367C75.4598 17.0638 75.0423 17.6657 74.7705 18.4424C74.5084 19.2093 74.3773 20.1073 74.3773 21.1364C74.3773 22.1558 74.5084 23.0538 74.7705 23.8304C75.0423 24.6071 75.4646 25.2138 76.0374 25.6507C76.6199 26.0778 77.382 26.2914 78.3237 26.2914Z"
        fill="#001358" />
    <path
        d="M93.5007 29.4369C92.3649 29.4369 91.4038 29.2233 90.6174 28.7961C89.8311 28.3593 89.234 27.7816 88.8263 27.0632C88.4282 26.3448 88.2292 25.5536 88.2292 24.6896C88.2292 23.9323 88.3554 23.2528 88.6078 22.6509C88.8602 22.0393 89.2486 21.515 89.7728 21.0782C90.2971 20.6316 90.9766 20.2675 91.8115 19.986C92.4426 19.7821 93.1804 19.5977 94.025 19.4326C94.8793 19.2676 95.8016 19.1171 96.7918 18.9812C97.7917 18.8356 98.8354 18.6802 99.9227 18.5152L98.6703 19.2288C98.68 18.1414 98.4373 17.3405 97.9422 16.826C97.4471 16.3115 96.6122 16.0542 95.4375 16.0542C94.7288 16.0542 94.0444 16.2192 93.3842 16.5493C92.7241 16.8794 92.263 17.4473 92.0008 18.2531L88.7971 17.2483C89.1855 15.9183 89.9233 14.8504 91.0106 14.0446C92.1076 13.2388 93.5833 12.8359 95.4375 12.8359C96.8355 12.8359 98.0636 13.0641 99.1218 13.5204C100.19 13.9766 100.981 14.7242 101.495 15.7629C101.777 16.3163 101.947 16.8842 102.005 17.4667C102.063 18.0395 102.092 18.6657 102.092 19.3452V29H99.0198V25.5924L99.5295 26.1458C98.8208 27.2817 97.9908 28.1166 97.0394 28.6505C96.0977 29.1747 94.9181 29.4369 93.5007 29.4369ZM94.1997 26.6409C94.9958 26.6409 95.6754 26.5002 96.2384 26.2186C96.8015 25.9371 97.2481 25.5924 97.5782 25.1847C97.9179 24.777 98.1461 24.3935 98.2626 24.0343C98.447 23.5877 98.549 23.078 98.5684 22.5053C98.5975 21.9228 98.6121 21.4519 98.6121 21.0927L99.6897 21.4131C98.6315 21.5781 97.7238 21.7237 96.9665 21.85C96.2093 21.9762 95.5589 22.0975 95.0152 22.214C94.4716 22.3208 93.991 22.4421 93.5736 22.5781C93.1658 22.7237 92.8212 22.8936 92.5396 23.0877C92.2581 23.2819 92.0397 23.5052 91.8843 23.7576C91.7387 24.01 91.6659 24.3061 91.6659 24.6459C91.6659 25.0342 91.763 25.3789 91.9571 25.6798C92.1513 25.9711 92.4328 26.2041 92.8018 26.3788C93.1804 26.5535 93.6464 26.6409 94.1997 26.6409Z"
        fill="#001358" />
</svg>