<svg width="20" height="20" viewBox="0 0 20 20" fill="none" xmlns="http://www.w3.org/2000/svg">
    <g id="Social">
        <path id="Vector"
            d="M18.7167 5.00003C18.075 5.2917 17.3833 5.48337 16.6667 5.57503C17.4 5.13337 17.9667 4.43337 18.2333 3.5917C17.5417 4.00837 16.775 4.30004 15.9667 4.4667C15.3083 3.75004 14.3833 3.33337 13.3333 3.33337C11.375 3.33337 9.77501 4.93337 9.77501 6.90837C9.77501 7.1917 9.80834 7.4667 9.86667 7.72503C6.90001 7.57503 4.25834 6.15003 2.50001 3.9917C2.19167 4.5167 2.01667 5.13337 2.01667 5.78337C2.01667 7.02503 2.64167 8.12503 3.60834 8.75003C3.01667 8.75003 2.46667 8.58337 1.98334 8.33337V8.35837C1.98334 10.0917 3.21667 11.5417 4.85001 11.8667C4.32561 12.0102 3.77509 12.0302 3.24167 11.925C3.46801 12.6354 3.91129 13.257 4.50919 13.7025C5.10709 14.1479 5.82955 14.3948 6.57501 14.4084C5.31137 15.4087 3.745 15.9495 2.13334 15.9417C1.85001 15.9417 1.56667 15.925 1.28334 15.8917C2.86667 16.9084 4.75001 17.5 6.76667 17.5C13.3333 17.5 16.9417 12.05 16.9417 7.32503C16.9417 7.1667 16.9417 7.0167 16.9333 6.85837C17.6333 6.35837 18.2333 5.72503 18.7167 5.00003Z"
            fill="white" />
    </g>
</svg>